<svg fill="none" height="37" viewBox="0 0 37 37" width="37" xmlns="http://www.w3.org/2000/svg"><g fill="#000"><path d="m1.97457 1.97364c1.96123-1.9650581 5.15085-1.96481639 7.1101.00095 1.94713 1.94379 1.90803 5.13908-.00095 7.1063-1.61565 1.61811-1.61547 4.23891.00095 5.85781 1.60733 1.603 4.22963 1.5715 5.85583 0 1.9614-1.9617 5.1632-1.9622 7.1225 0 1.9494 1.9423 1.9112 5.1582 0 7.1262-1.6157 1.6161-1.6166 4.2361 0 5.8559 1.9693 1.9609 1.9702 5.1464 0 7.1082-1.9583 1.9609-5.1607 1.9614-7.1225 0-1.9463-1.9417-1.9077-5.1421 0-7.1082 1.6183-1.6193 1.6184-4.2394 0-5.8559-1.6067-1.6048-4.2292-1.5729-5.85678 0-1.95885 1.9592-5.1476 1.9593-7.10915 0-1.9465147-1.9441-1.9076092-5.1593 0-7.1262 1.60208-1.6024 1.57024-4.2356 0-5.85781-1.96601466-1.96401-1.96617032-5.14308 0-7.10725z"/><path d="m27.9008 14.9387c1.9635-1.9717 5.1563-1.972 7.1215-.001 1.9704 1.9694 1.9701 5.158 0 7.1272-1.9657 1.9675-5.159 1.9669-7.1215 0-1.9743-1.9682-1.9733-5.1577 0-7.1262z"/><path d="m14.9405 1.97839c1.9635-1.97148713 5.1564-1.97088841 7.1216 0 1.97 1.96939 1.97 5.1572 0 7.12626-1.9658 1.96735-5.1591 1.96685-7.1216 0-1.9742-1.96825-1.9732-5.15789 0-7.12626z"/></g></svg>