<svg viewBox="0 0 24 24" xmlns="http://www.w3.org/2000/svg"><g><path d="m13.5 9 .00000017-.00021827c.00112736-1.46023-.532521-2.87033-1.50014-3.96395v-2.53584c0-1.38071-1.11929-2.5-2.5-2.5s-2.5 1.11929-2.5 2.5v.521l-.00000041.00000003c-3.30165.282474-5.74917 3.18798-5.4667 6.48963.200464 2.34309 1.75126 4.35306 3.96684 5.14137v.641l-.854.853.00000005-.00000005c-.0937141.0939506-.146237.221301-.146.354v.00000072c.0003071.132591.0527482.259742.146.354l.854.854v.586l-.854.854.00000003-.00000003c-.195191.19525-.195191.51175-.00000005.707l.854.853v1.292l.00000001-.00000402c-.00023806.132699.052284.26005.145997.354001l1.5 1.5-.00000004-.00000004c.195015.195509.511597.195909.707106.00089385.0002983-.00029755.00059623-.00059548.00089378-.00089378l1.5-1.5.00000001-.00000001c.0937141-.0939496.146238-.221299.146002-.353997v-7.348l-.00000037.00000013c2.39202-.851706 3.99229-3.11289 4-5.652zm-6-3h-.00000004c.552285-.00000002 1 .447715 1 1 .00000002.552285-.447715 1-1 1-.552285.00000002-1-.447715-1-1v.00000011c-.00000008-.552285.447715-1 1-1h.00000004zm2-5h-.00000007c.828427-.00000004 1.5.671573 1.5 1.5v1.63l-.0000001-.00000007c-.602574-.434703-1.28079-.753463-2-.94v1.81h-1v-2.5.00000023c-.00000013-.828427.671573-1.5 1.5-1.5z"/><path d="m22.354 18.026-5.2-5.2.00000012-.00000024c1.31269-2.70353.401635-5.96153-2.123-7.592-.230921-.151427-.540875-.0869843-.692302.143937-.0946713.144371-.108167.327367-.0356979.484063l-.00000011-.00000024c1.57633 3.39991.38992 7.44157-2.774 9.45l.00000003-.00000002c-.232512.148972-.300235.458226-.151263.690738.0917865.143258.250123.23001.420263.230262h.006-.0000002c.879855-.00837008 1.74719-.209417 2.541-.589l.65.577v1.279.00000008c.00000004.276142.223858.5.5.5h1.286l.214.224v1.276.00000008c.00000004.276142.223858.5.5.5h1.119l.917.864c.0928133.0874048.215509.136054.343.136h2.126-.00000002c.276142.00000001.5-.223858.5-.5v-2.121l.00000001.00010623c0-.132352-.052476-.259306-.145925-.353031z"/></g></svg>