<svg fill="none" height="37" viewBox="0 0 42 37" width="42" xmlns="http://www.w3.org/2000/svg"><path clip-rule="evenodd" d="m9.25509 5.3331c3.61711-3.21391 7.90631-4.8331 12.83131-4.8331 6.4732 0 11.1885 4.13987 14.3572 9.5184 3.1685 5.3782 4.8198 12.0369 5.1617 17.1901.0316.4337-.0637.867-.2747 1.247l-.0011.0023-.0012.0021c-3.0266 5.1994-9.8966 8.0379-19.2404 8.0381-6.7098.0882-13.12737-2.741-17.58857-7.7536-.53095-.5903-.6903-1.4263-.41362-2.1704.59833-1.6105 1.71929-4.2969 3.20771-6.5879.74409-1.1451 1.58639-2.2017 2.50931-2.9756.92257-.7736 1.94317-1.279 3.03787-1.285h.0014c1.1029 0 2.0561.4396 2.8825 1.0336.8081.5807 1.511 1.3214 2.1235 1.9667l.0371.0394.0021.002c.3508.3891.723.7582 1.1147 1.1061 1.6688-2.1448 3.0655-4.4888 4.157-6.9782l.0033-.0078.0042-.0076c.5294-1.0059 1.7548-1.4199 2.7858-.9411 1.0312.4787 1.5054 1.6819 1.0788 2.7354l-.0023.0058-.0026.0056c-2.2322 4.7823-3.9568 7.2003-5.2393 8.4241-.6434.6139-1.1807.9327-1.6202 1.0953-.443.164-.7722.164-.976.164-.9351 0-1.7324-.3607-2.4418-.8736-.6955-.503-1.3215-1.1635-1.9175-1.7924l-.0252-.0266c-.2737-.2903-.6884-.7296-1.0876-1.096-.2-.1837-.3905-.3436-.5535-.4563-.0814-.0563-.1512-.0976-.208-.1236-.0281-.0132-.0504-.0212-.0674-.026-.004-.0011-.0076-.0019-.0107-.0026-.067.0178-.1616.0639-.2847.1556-.1368.102-.293.2481-.4655.4378-.3447.3789-.7378.9128-1.1522 1.5618-.8056 1.2612-1.678 2.9355-2.41789 4.6973 3.59319 3.5466 8.47059 5.4908 13.52289 5.3854h.0049c7.4002 0 12.8498-2.0072 15.2132-5.3942-.4206-4.6702-1.9241-10.1848-4.4743-14.5339-2.5683-4.3807-6.1632-7.52641-10.7389-7.52641-7.8155 0-13.74495 5.45191-17.5947 16.32451l-.0024.0067-.00283.0066c-.43964 1.0384-1.61136 1.5552-2.67451 1.1798-1.063182-.3756-1.65055-1.5136-1.340738-2.5975l.00201-.0072.002447-.007c2.236041-6.328 5.167031-11.11816 8.779411-14.3279z" fill="#000" fill-rule="evenodd"/></svg>