<svg fill="none" height="37" viewBox="0 0 37 37" width="37" xmlns="http://www.w3.org/2000/svg"><path d="m3.07143.5c1.42016 0 2.57143 1.15127 2.57143 2.57143v21.85717c0 1.2552-.89982 2.2978-2.08929 2.5237v8.5656c0 .2662-.21586.4821-.48214.4821-.26629 0-.48214-.2159-.48214-.4821v-8.5656c-1.18947-.2259-2.08929-1.2685-2.08929-2.5237v-21.85717c0-1.42016 1.15127-2.57143 2.57143-2.57143zm7.71427 0c1.4202 0 2.5714 1.15127 2.5714 2.57143v30.85717c0 1.4202-1.1512 2.5714-2.5714 2.5714-1.42015 0-2.57141-1.1512-2.57141-2.5714v-30.85717c0-1.42016 1.15126-2.57143 2.57141-2.57143zm7.7143 0c1.4202 0 2.5714 1.15127 2.5714 2.57143v26.35717c0 1.2552-.8998 2.2978-2.0893 2.5237v4.0656c0 .2662-.2158.4821-.4821.4821s-.4821-.2159-.4821-.4821v-4.0656c-1.1895-.2259-2.0893-1.2685-2.0893-2.5237v-26.35717c0-1.42016 1.1512-2.57143 2.5714-2.57143zm7.7143 0c1.4202 0 2.5714 1.15127 2.5714 2.57143v17.35717c0 1.2552-.8999 2.2978-2.0893 2.5237v13.0656c0 .2662-.2158.4821-.4821.4821s-.4822-.2159-.4822-.4821v-13.0656c-1.1894-.2259-2.0892-1.2685-2.0892-2.5237v-17.35717c0-1.42016 1.1512-2.57143 2.5714-2.57143zm7.7143 0c1.4202 0 2.5714 1.15127 2.5714 2.57143v21.85717c0 1.2552-.8999 2.2978-2.0893 2.5237v8.5656c0 .2662-.2159.4821-.4821.4821-.2663 0-.4822-.2159-.4822-.4821v-8.5656c-1.1894-.2259-2.0893-1.2685-2.0893-2.5237v-21.85717c0-1.42016 1.1513-2.57143 2.5715-2.57143z" fill="#000"/></svg>