<svg fill="none" height="37" viewBox="0 0 35 37" width="35" xmlns="http://www.w3.org/2000/svg"><path d="m17.4338.5c.3345 0 .6649.075823.9664.220547.6845.288053 1.3568.926083 1.9939 1.768143.6395.84506 1.2556 1.91089 1.8273 3.0754 1.1029 2.24687 2.0439 4.87741 2.6654 7.03771 1.0412-1.0101 2.3234-1.7374 3.7251-2.1131.708-.2106 1.461-.2165 2.1719-.016.7121.2008 1.3527.6004 1.848 1.1517 1.1722 1.3071 1.5981 3.4767 1.3327 6.4439-.2659 2.9732-1.2287 6.7803-2.8746 11.3988-.1075.2979-.3288.542-.615.6767-.2861.1344-.6137.1491-.9108.0414-.1483-.0509-.2854-.1309-.4021-.2356-.1176-.1055-.2128-.2338-.2798-.3771-.0669-.1432-.1046-.299-.1102-.4571-.0055-.1575.021-.3145.0773-.4617l.3757-1.0425c1.8017-5.099 2.4282-8.4602 2.5157-10.6598.0934-2.3465-.427-3.3548-.7704-3.7474-.2139-.2242-.4894-.3805-.7911-.4486-.3038-.0685-.6213-.0448-.9118.0679l-.0103.0038c-1.4319.429-2.6813 1.3223-3.5518 2.54.6642 2.7171 1.2358 5.6266 1.4288 8.1715.0973 1.2825.0989 2.4766-.033 3.509-.1311 1.0271-.3969 1.9051-.842 2.5514-.2117.3437-.5003.6338-.8429.8463-.3425.2124-.7292.3426-1.1303.379-.329.0301-.6607-.0231-.9644-.1537s-.5702-.3349-.7752-.5948c-.4964-.5741-.7978-1.512-.9635-2.6229-.1671-1.1203-.1997-2.4412-.1431-3.7993.1129-2.7158.5847-5.6014 1.0803-7.3685.1283-.4625.3139-.9068.55-1.3242l-.2779-1.0585c-.8246-3.0587-1.9307-5.78661-2.9546-7.76338-.5122-.98876-1.0024-1.78608-1.4241-2.34213-.211-.2783-.402-.49292-.5679-.63996-.139-.12324-.2486-.18764-.3278-.21301-.0589.04962-.1345.13641-.2185.27144-.1058.17002-.2192.40881-.323.72668-.2077.63572-.3763 1.58151-.3815 2.9114-.0104 2.6597.6337 6.84516 2.9123 13.13946.1091.2894.0997.6108-.0255.8935-.1252.2826-.356.5048-.6433.6174l-.0009-.001c-.2819.114-.5967.1166-.8797.0057-.2836-.1113-.5134-.328-.6433-.6042l-.001-.0009c-4.2545-9.3034-6.5019-12.73072-7.50284-13.92177-.14922 1.11485-.04049 2.894.62444 5.39587.7268 2.7346 2.1138 6.3233 4.5389 10.8341.1478.2678.1866.5831.1063.8784-.0802.2954-.2727.5477-.5359.7031l-.0009-.0009c-.26.1609-.572.2149-.8703.1479-.2994-.0672-.5605-.2498-.7271-.508-1.3298-1.9967-2.8627-4.3125-4.25155-6.3336-1.25271-1.823-2.38406-3.3979-3.14111-4.2856-.01238 1.8609.79558 6.1988 5.22636 12.8982.1817.2594.2531.5801.1997.8926-.0536.3135-.229.5928-.4879.7766s-.58012.2573-.89286.2036c-.31288-.0538-.59198-.2302-.77515-.4901l-.00378-.0048c-1.43919-2.2353-3.30804-4.1582-5.49575-5.6578.67877 2.7991 2.02948 5.3879 3.9351 7.5391l.405.442.00658.0066.21381.2479c1.08718 1.2203 2.45295 2.1604 3.98215 2.739 1.6297.6164 3.39.801 5.1115.5363.1528-.0311.3104-.0308.4634-.001.1537.0299.2999.0897.4305.1763.1305.0866.243.1979.3305.328.0658.0976.1163.2045.1507.3166l.0292.1141.001.0028c.056.3126-.0126.6352-.1902.8982-.1777.2629-.4508.4454-.7611.5089l-.0018.001c-.6987.1361-1.4085.2076-2.1203.213h-.0103c-2.1884-.1363-4.3151-.7837-6.21061-1.8897-1.89351-1.1048-3.5043-2.6375-4.7046-4.476l-.41724-.6013c-.95966-1.4342-1.81076-3.0706-2.36031-4.5674-.31395-.8551-.53128-1.6698-.612211-2.3779-.080455-.7041-.028849-1.3232.217571-1.7719l.00094-.002c.14761-.2621.35864-.4831.61315-.6427.25442-.1595.54443-.2532.84391-.2715h.01224l.34096.0226c.62058.0672 1.21501.2795 1.74056.6145-.88294-2.1697-1.35342-4.0041-1.52394-5.4646-.18187-1.5582-.02805-2.709.33908-3.3789.12546-.2718.32348-.5038.57265-.6691.25141-.1668.54448-.2597.84579-.2677l.16766-.0028c.16797.0026.3357.0249.51236.0819.23436.0757.47678.2106.75444.4307.47089.3736 1.05792 1.0041 1.89691 2.0434-1.30633-4.72168-.81315-7.17756-.4163-8.16869l.081-.18662c.12-.29636.32542-.55003.5896-.72951.23774-.16148.51341-.25572.79871-.27426l.02071-.00377h.08383l.00942.00188c.14683.00499.32964.02668.55662.12253.2747.11604.6056.33557 1.0172.74458.7617.75691 1.8168 2.18172 3.3286 4.85863-.2868-2.41051-.2018-4.31972.1384-5.76815.3742-1.59287 1.0601-2.64259 1.9101-3.174363l.0132-.00754c.3037-.147206.6366-.224253.9738-.224317zm6.6722 19.4835c-.2326 1.7223-.3484 3.4971-.3484 4.9925 0 .8671.0392 1.6375.1167 2.2479.0388.3052.0864.5686.1432.7822.0371.14.0782.2545.1196.345.0303-.0261.0579-.0546.0782-.0849.3064-.4581.5271-1.3875.5228-2.8925-.004-1.3411-.1885-3.1198-.6321-5.3902z" fill="#000"/></svg>